<?xml version="1.0" standalone="no"?>
<!DOCTYPE svg PUBLIC "-//W3C//DTD SVG 20010904//EN"
 "http://www.w3.org/TR/2001/REC-SVG-20010904/DTD/svg10.dtd">
<svg version="1.0" xmlns="http://www.w3.org/2000/svg"
 width="512.000000pt" height="512.000000pt" viewBox="0 0 512.000000 512.000000"
 preserveAspectRatio="xMidYMid meet">

<g transform="translate(0.000000,512.000000) scale(0.100000,-0.100000)"
fill="#000000" stroke="none">
<path d="M1234 5106 c-40 -29 -43 -62 -17 -171 48 -203 41 -422 -18 -537 -73
-142 -239 -228 -412 -213 -182 15 -293 76 -370 201 -49 79 -114 68 -176 -30
-146 -232 -227 -494 -238 -771 -9 -217 21 -358 99 -476 74 -111 159 -149 213
-95 l25 25 56 -19 c159 -55 422 -65 580 -23 l72 19 6 -46 c8 -60 -8 -152 -35
-200 -24 -42 -85 -90 -138 -108 -62 -22 -103 -15 -162 26 -49 34 -72 62 -134
164 -39 64 -116 63 -147 -2 -55 -115 -63 -436 -15 -585 35 -106 89 -196 162
-270 112 -112 192 -141 243 -87 27 27 28 28 81 16 30 -7 87 -16 126 -19 l72
-7 6 -83 c18 -260 149 -466 364 -572 78 -39 157 -52 191 -34 12 6 27 29 33 52
11 35 10 43 -7 65 -11 16 -44 35 -81 49 -158 57 -262 168 -307 325 -37 133
-29 272 21 368 19 35 84 109 194 220 135 136 172 180 202 239 43 83 77 204 77
275 0 26 4 48 8 48 4 0 50 -24 102 -54 315 -180 512 -418 573 -691 35 -157 31
-302 -14 -483 -22 -91 -16 -132 22 -152 51 -28 108 -4 134 55 5 12 45 51 88
85 122 98 237 241 311 388 21 41 31 52 51 52 51 0 75 37 95 145 33 174 45 379
33 519 l-11 124 38 120 c21 66 48 167 60 224 12 57 23 113 25 124 3 14 15 23
34 27 52 11 65 45 69 181 10 287 -72 566 -229 777 -104 140 -284 289 -442 365
-85 40 -128 43 -161 11 -20 -20 -24 -36 -29 -127 -7 -126 -35 -240 -78 -321
-30 -55 -49 -74 -49 -48 0 6 -18 49 -40 96 -162 346 -514 641 -965 808 -121
45 -162 52 -191 31z"/>
<path d="M4702 5109 c-96 -15 -220 -64 -287 -114 -103 -77 -168 -179 -207
-324 -18 -65 -21 -113 -25 -331 -2 -140 -6 -265 -8 -277 -3 -12 -27 -35 -57
-53 -112 -69 -221 -197 -263 -306 -10 -27 -38 -71 -61 -97 -141 -158 -217
-382 -293 -874 -71 -454 -173 -756 -340 -1008 -265 -401 -647 -608 -1276 -692
-165 -22 -916 -25 -1115 -5 -512 51 -684 31 -747 -88 -40 -76 -22 -198 48
-318 91 -159 313 -326 564 -425 303 -120 663 -182 1130 -194 1273 -31 2260
348 2810 1082 282 375 446 796 522 1335 13 96 17 192 17 415 0 318 -10 410
-61 567 -17 51 -27 108 -28 148 -1 49 -10 88 -38 159 -59 151 -116 223 -239
308 -36 24 -48 40 -53 67 -9 46 -1 456 9 479 13 28 41 38 139 46 107 9 151 26
199 73 54 55 73 102 73 183 -1 104 -49 180 -148 232 -38 20 -172 26 -265 12z
m217 -194 c30 -29 31 -80 3 -108 -15 -15 -41 -22 -104 -27 -114 -11 -161 -27
-213 -72 -72 -64 -78 -92 -83 -389 -2 -163 0 -271 7 -296 17 -62 63 -117 140
-167 54 -34 77 -57 100 -98 l31 -53 -78 -15 c-93 -18 -182 -60 -239 -113 l-43
-39 -55 50 c-69 63 -148 109 -238 137 l-69 22 38 42 c21 24 55 51 76 62 59 30
119 89 142 139 18 41 21 72 27 330 4 183 11 299 19 325 56 179 183 276 389
295 94 8 119 4 150 -25z m-950 -2175 c39 -20 45 -62 26 -181 -22 -134 -43
-169 -105 -169 -30 0 -44 6 -64 31 -31 36 -31 26 -6 168 22 131 41 161 97 161
19 0 42 -4 52 -10z m-98 -549 c16 -16 29 -38 29 -48 0 -23 -65 -216 -110 -328
-82 -206 -226 -440 -372 -604 -89 -102 -279 -268 -316 -277 -48 -13 -96 15
-108 62 -11 44 5 71 73 125 146 113 315 306 415 474 85 142 146 278 210 465
21 63 48 125 60 137 31 34 82 31 119 -6z"/>
<path d="M1747 2039 c-11 -6 -25 -27 -33 -46 -21 -49 -29 -186 -15 -258 31
-166 152 -309 305 -361 60 -21 102 -6 122 42 23 56 3 91 -73 125 -82 38 -135
91 -163 165 -20 53 -22 71 -16 173 l5 113 -29 29 c-30 31 -70 37 -103 18z"/>
</g>
</svg>
