<?xml version="1.0" standalone="no"?>
<!DOCTYPE svg PUBLIC "-//W3C//DTD SVG 20010904//EN"
 "http://www.w3.org/TR/2001/REC-SVG-20010904/DTD/svg10.dtd">
<svg version="1.0" xmlns="http://www.w3.org/2000/svg"
 width="512.000000pt" height="512.000000pt" viewBox="0 0 512.000000 512.000000"
 preserveAspectRatio="xMidYMid meet">
<metadata>
Created by potrace 1.14, written by Peter Selinger 2001-2017
</metadata>
<g transform="translate(0.000000,512.000000) scale(0.100000,-0.100000)"
fill="#000000" stroke="none">
<path d="M1232 5105 c-30 -22 -41 -71 -26 -120 6 -22 12 -43 12 -48 0 -4 5
-31 11 -60 22 -114 30 -264 16 -327 -3 -14 -8 -38 -11 -55 -9 -54 -61 -149
-103 -191 -137 -137 -371 -160 -573 -58 -47 24 -128 99 -128 119 0 5 -10 23
-23 38 -24 31 -68 41 -105 24 -64 -30 -235 -392 -265 -563 -3 -16 -11 -54 -17
-84 -18 -83 -21 -372 -5 -451 30 -143 94 -258 174 -313 33 -24 48 -28 78 -23
21 4 45 15 53 25 15 19 16 19 81 -3 96 -33 199 -48 329 -48 121 0 133 1 244
27 38 9 71 14 74 11 11 -11 6 -141 -7 -186 -32 -116 -182 -198 -283 -155 -51
22 -120 92 -152 153 -29 58 -58 83 -96 83 -48 0 -76 -34 -90 -110 -25 -126
-30 -174 -30 -265 0 -60 2 -123 5 -140 39 -214 132 -366 284 -467 68 -46 110
-50 147 -13 19 19 32 24 52 20 82 -17 142 -25 185 -25 l47 0 0 -47 c2 -230
110 -443 288 -565 55 -38 196 -97 220 -93 10 2 22 4 28 4 18 2 54 37 54 54 0
20 18 24 125 32 180 13 390 62 559 131 61 24 126 44 146 44 41 0 78 22 90 55
5 13 33 41 62 63 68 51 166 148 222 220 42 56 146 228 146 244 0 4 13 8 28 8
38 0 72 38 83 92 11 55 28 167 37 238 8 73 9 319 0 397 -5 48 -3 72 12 114 37
101 110 387 110 432 0 2 13 7 30 10 19 4 37 18 49 38 18 29 19 48 16 203 -2
94 -6 185 -10 201 -3 17 -11 50 -16 75 -65 299 -250 564 -514 733 -157 100
-234 125 -282 92 -24 -17 -30 -41 -37 -155 -6 -86 -11 -114 -32 -190 -26 -90
-94 -206 -94 -159 0 24 -83 186 -136 266 -102 154 -284 324 -475 446 -144 92
-476 237 -543 237 -12 0 -31 -7 -44 -15z"/>
<path d="M4682 5105 c-249 -45 -409 -191 -473 -432 -18 -66 -22 -116 -25 -333
-3 -140 -7 -264 -9 -276 -3 -12 -31 -39 -67 -62 -35 -23 -82 -59 -105 -81 -54
-51 -125 -155 -149 -217 -10 -27 -37 -71 -61 -98 -113 -127 -214 -386 -258
-661 -3 -21 -23 -143 -30 -185 -2 -14 -11 -70 -20 -125 -129 -810 -482 -1287
-1104 -1495 -65 -21 -129 -41 -142 -44 -13 -3 -35 -7 -49 -10 -63 -14 -182
-36 -226 -41 -27 -3 -58 -8 -69 -10 -20 -4 -131 -13 -260 -20 -91 -5 -561 -6
-645 -1 -66 4 -226 16 -290 21 -273 22 -469 24 -539 5 -112 -30 -168 -105
-158 -214 29 -328 423 -615 1022 -744 138 -30 164 -34 320 -53 265 -31 810
-34 1065 -4 19 2 62 6 95 10 33 3 71 8 85 10 14 2 61 9 105 15 44 7 87 14 95
15 8 2 51 11 95 20 234 48 516 135 685 212 570 257 972 630 1237 1148 111 216
205 490 249 725 3 14 9 43 14 65 5 22 12 67 15 100 4 33 9 62 10 65 18 30 27
569 13 721 -12 127 -63 336 -88 363 -4 4 -2 22 5 40 11 26 11 37 -1 71 -9 22
-26 71 -39 108 -45 128 -117 222 -227 296 -26 17 -52 39 -57 49 -10 20 -7 479
4 505 12 28 40 38 123 43 103 7 163 27 209 73 126 122 102 311 -51 405 -43 27
-57 30 -139 32 -51 1 -125 -4 -165 -11z"/>
</g>
</svg>
